<svg width="54" height="54" viewBox="0 0 54 54" fill="none" xmlns="http://www.w3.org/2000/svg">
<path d="M4.5 27C4.5 39.4264 14.5736 49.5 27 49.5C39.4264 49.5 49.5 39.4264 49.5 27C49.5 14.5736 39.4264 4.5 27 4.5" stroke="#E64872" stroke-width="3.375" stroke-linecap="round"/>
<path d="M10.4593 11.4272C10.7705 11.0973 11.0913 10.7764 11.4212 10.465M17.8815 6.14113C18.2899 5.95756 18.7045 5.78538 19.125 5.625M6.14637 17.8693C5.96081 18.2817 5.78688 18.7004 5.625 19.125" stroke="#E64872" stroke-width="3.375" stroke-linecap="round" stroke-linejoin="round"/>
<path d="M33.75 20.25L27 27M27 27L20.25 33.75M27 27L33.75 33.75M27 27L20.25 20.25" stroke="#E64872" stroke-width="3.375" stroke-linecap="round" stroke-linejoin="round"/>
</svg>
